<?xml version="1.0" encoding="UTF-8"?>
<svg width="40" height="40" viewBox="0 0 40 40" fill="none" xmlns="http://www.w3.org/2000/svg">
  <!-- 外圈 -->
  <circle cx="20" cy="20" r="18" fill="#FF4B4B" stroke="#FF0000" stroke-width="2"/>
  
  <!-- 輻射符號 -->
  <g transform="translate(20, 20)">
    <!-- 中心圓 -->
    <circle cx="0" cy="0" r="4" fill="#FFD700" stroke="#FFA500" stroke-width="1"/>
    
    <!-- 輻射線 -->
    <path d="M0 -12L2 -4L-2 -4Z" fill="#FFD700"/>
    <path d="M12 0L4 2L4 -2Z" fill="#FFD700"/>
    <path d="M0 12L2 4L-2 4Z" fill="#FFD700"/>
    <path d="M-12 0L-4 2L-4 -2Z" fill="#FFD700"/>
    
    <!-- 對角線輻射 -->
    <path d="M8.5 -8.5L3 -3L-3 -3Z" fill="#FFD700"/>
    <path d="M8.5 8.5L3 3L-3 3Z" fill="#FFD700"/>
    <path d="M-8.5 8.5L-3 3L-3 -3Z" fill="#FFD700"/>
    <path d="M-8.5 -8.5L-3 -3L3 -3Z" fill="#FFD700"/>
  </g>
  
  <!-- 脈動效果 -->
  <circle cx="20" cy="20" r="16" fill="none" stroke="#FF4B4B" stroke-width="1" stroke-opacity="0.3"/>
  <circle cx="20" cy="20" r="14" fill="none" stroke="#FF4B4B" stroke-width="1" stroke-opacity="0.3"/>
  <circle cx="20" cy="20" r="12" fill="none" stroke="#FF4B4B" stroke-width="1" stroke-opacity="0.3"/>
</svg> 